<svg width="146.221" height="146.221" class="prefix__css-1j8o68f"><g xmlns="http://www.w3.org/2000/svg" transform="matrix(1.3546 0 0 1.3546 -.075 4)" fill="#862d63"><path d="M19.8 15.3h.5l-.4-.2zm.5.1zm.8-.7c0 .1 0 .1.1.1l.4-.3c-.2-.1-.3-.1-.5.2zm.4-.2zm-4.1 2.3zm-.2.6l.3-.2c.1-.1.1-.2.1-.2h-.2l-.2.4c-.1-.1-.1 0 0 0zm2.2-2.9h-.1l-.2.2h.3zm-2.1 2.4l.6-.5c.1-.1.1-.2.1-.3h-.3l-1.2 1.1-.2.4.7-.6zm-1.1.8z"/><path d="M9.7 25v-.2a1.7 1.7 0 01.7-1.1l.9-.6.5-.6.7-.7.4-.4.4-.3a1.9 1.9 0 00.8-.9l.4-.5a5.9 5.9 0 001-1.3l.2-.3.3-.2-.2-.3.4-.5c.8-.6 1.4-1.4 2.2-2l.3-.3a1.4 1.4 0 01.5-.6l.8-.4h.4a1.4 1.4 0 00.7-.6V13a3.5 3.5 0 011.3-1.4l.8-.5.2-.2.4-.4 1-.5h.2l-1.1.4-1.4 1c-.6.5-1.4.6-1.8 1.4h.3c-.7.2-1.4.5-1.7 1.2s-.8.6-1.2.9a.4.4 0 00-.3.4c-.8-.1-1.1.5-1.5.9v.8a3.9 3.9 0 00-1.6 1.4c-1.6.1-1.6 2.1-3 2.5h-.1a.2.2 0 000 .2c-.3 0-.5.2-.4.5l-.2.5c-.7.4-.6 1.1-1 1.7-.8.5-1.1 1.5-1.7 2.2l.3.5.2-.2a11.6 11.6 0 01.9-1.3zM53.9 3.3l.6.2h.2a2.2 2.2 0 001.4.2 4.1 4.1 0 011.9.1h1.2a1.4 1.4 0 011.2.3.1.1 0 010 .1H60a.1.1 0 000 .1h.7a1.8 1.8 0 011.3 0c.2 0 .1.1.2.2l.5.2h-.2c-.2-.4-.5-.4-.8-.4a9.7 9.7 0 00-4.3-.9h-.8A9.8 9.8 0 0053 3h.2zm7.3 3.1zM50.3 4.7zm10.9 1.7h.2-.2zM19 14.7zm32.1-10zm17.6 2.2a.9.9 0 001 .2h.6a3.1 3.1 0 00-1.8-.7l-.7-.2.5.3zm-3.4-1.3c0 .1.1.2.2.3h.2l.5-.3a4.2 4.2 0 00-1.7-.6l.7.4zm7.4 2.7l.8.5c-.2-.3-.4-.5-.8-.5z"/><path d="M99 76.1l.6-1.6.6-1.5c.2-.5.6-1.8.8-2.6a1.7 1.7 0 01.3-.7h.1v-1.1c.5-.1.4-.6.5-.9l.8-4.7a12.7 12.7 0 000-6.2 1.9 1.9 0 00-.5-1.6v-4.3c-.3-.9.3-1.9-.4-2.7L101 45a.4.4 0 000-.2l-.2-.6a.5.5 0 010-.4h.1c.3 0 .3-.5.3-.9a3 3 0 00-.4-1.1l-.3-.4a1.1 1.1 0 01-.2-.7 6.7 6.7 0 00-.2-2v-.6c-.2-.7-.4-1.5-.6-2.2l-.2-.5a2.5 2.5 0 01-.4-1.1 2.5 2.5 0 00-.3-.8l-.6-1a.8.8 0 00-.6-.2h-.1V32h-.2v-.8H97V31a.4.4 0 000-.1v-.2c.1-.2.1-.3-.1-.5a1.8 1.8 0 01-.4-.6l-.2-.6a2.9 2.9 0 00-.7-1.2 2.2 2.2 0 01-.5-.7l-.7-1.6a4.3 4.3 0 00-.6-1l-.6-.8a2.4 2.4 0 01-.4-.8l-.2-.3a.6.6 0 01-.1-.5.5.5 0 00-.2-.4l-.4-.3v.2c.1.2 0 .3-.1.3h-.2l.3 1 .3.5.7.9h-.1l-.2-.2-.2-.2a1.3 1.3 0 00-1.2-1.1v-.7c-.3-1.2-1.6-1.3-2.2-2.1a1.5 1.5 0 00-1.1-.9l-.8-.9a11.3 11.3 0 00-3.1-3l-.8-.6-.4-.3c-.7-.7-1-1.8-2.2-1.8l-.8-.5-.9-.7a2.2 2.2 0 00-1.8-1.3 5.1 5.1 0 00-2.3-1.2l.2.2.5.4 1.3.7a8.5 8.5 0 012.1 1.6 6.8 6.8 0 001.5 1.1l.6.5c.1.1.2.2.1.3H81l-.9-.3a5.6 5.6 0 01-2-.8l-1.2-.6-1.3-.7h-.2c-.3-.1-.4-.4-.8-.5l-.8-.2-2.5-.5a2.6 2.6 0 01-.9-.7 1.7 1.7 0 01-.9-.3l-1-.4a18.1 18.1 0 01-2.8-.8l-.6-.2-1-.3h-.5l-.2-.3v-.1h-1.6l-.6-.5-.4.2-.4.2h-.2l-.9-.5c-.6.6-1.1-.2-1.6-.1l-1-.3a1.2 1.2 0 01-1.2 0h-1.2a.6.6 0 01-.5-.6l.3-.2h.6a.7.7 0 01.1.3c0 .2.2.2.5.2h.2l-.4-.6a1.1 1.1 0 00-1-.2l-1 .3H53c.3.2.2.3.2.5h-1.6l-.4-.2-.8-.4h-.1l-.7-.2h-2.3l.4-.2.8-.2h.3l1.7-.3 1.1-.2.6-.2h-1.1a8.4 8.4 0 00-3.4 0h-1.3L43 3.6c-1.4.1-2.8 0-3.9 1.2-2.5-.4-4.7.7-6.9 1.8l-2.2.9a6.7 6.7 0 00-3.7 1.8h.3l.5-.3.8-.5 1.3-.6 1-.2a6 6 0 012-.9l.9-.3h.2c.1.2.5 0 .7 0h.2c.1 0 .1.1 0 .1l-.6.4 1-.3.8-.2-1.3.7-1.3.4a1 1 0 00-.6.5l-.3.5h.3l.4-.2a1.4 1.4 0 01.9-.6l1.5-.5h.5a.1.1 0 01.1.2c-.2.2-.6.3-.8.5h.2l-3.2.9-3.8 1.6a5.2 5.2 0 01-2.3 1.2 6.6 6.6 0 01-1.7 1.1l-.8.2a1.5 1.5 0 01-1.3.9l-.3.5a3.7 3.7 0 01-1.2 1.1h-.1v-.1l-.2.2-.2.2-1 .2h-.5l-.4.5c-.1.1-.1.2 0 .2h.1c-.6.6-1 1.4-1.8 1.7L15 19.9c-.6 1.2-1.8 1.6-2.6 2.6s-1.4 3.9-3.9 4.3l-.2-.3-.2.5a2.7 2.7 0 01-.4.8 16.9 16.9 0 00-1.2 2.1.8.8 0 00-.1.5 1.4 1.4 0 01-.2.8l-.5 1.1h.2c.3 0 .3.3.4.6l.8-1.1a2.2 2.2 0 01.6-.7 2 2 0 00.9-.9l.3-.3.4-.4.6-1.1h.2c.1.1.1.1.2 0l.2-.4h.5v.8l.5-.5a.5.5 0 000-.5.4.4 0 01.1-.3 1.5 1.5 0 00.3-.5 1.3 1.3 0 01.8-.9l.3-.2.3-.3a2.4 2.4 0 00.8-1l-.2-.3c0-.1.1-.3.2-.4h.5l.6-.8.6-.3h.2a48.8 48.8 0 00-5.5 7.2h-.1.1a48.4 48.4 0 00-5.3 11.2h-.5l-.5-.4c-.2-.2-.1-.7-.4-.9h.1c.3-.5-.1-1.2.3-1.7s.1-1.4-.9-1.2-1.5.5-1.3 1.5-1 1.8-1.1 2.9-.5.5-.3.9v3.9c.1.8-.5 1.8.8 2.1l1.3.9c.1.5-.5 1.6.9 1.3a49.2 49.2 0 00-.3 5c0 1.1.1 2.2.1 3.3v-.4c-.1-.4-.1-.8-.2-1.3l-.3.3v-.2h-.5c0 .5-.1.8-.4.9a.9.9 0 00-.1.5c0 .1.1.3.2.2s.4.2.7.4-.2.3-.4.2-.2.1-.2.3v.3l.5 1.5c0 .3-.1.6-.1.9a1.7 1.7 0 00.2.8h-.3v-.3l-.7-.2v-.6a1.5 1.5 0 000-.5 14.6 14.6 0 01-.3-1.8 16.6 16.6 0 01-.2-3.5.9.9 0 01.1-.5v.2a2.9 2.9 0 01.1.5.8.8 0 00.1.4c.1.2.2.4.4.4s.1-.1.1-.2a2.1 2.1 0 00-.1-.5 4.2 4.2 0 01-.3-1.3 1.5 1.5 0 00-.3-.7 1.6 1.6 0 01-.2-.9v-.8c0-.3.1-.6.1-.9a.5.5 0 00-.1-.4h-.1c-.8.4-.7.2-1 1.6V55c0 .7-.1 1.4 0 2.1a10.8 10.8 0 00.2 2.3 1.8 1.8 0 010 .5 3.1 3.1 0 00.1.9 5.9 5.9 0 01.1 1.3 3.9 3.9 0 00.2 1.7 1.2 1.2 0 010 .4 2.1 2.1 0 00.1.8 4.9 4.9 0 01.2.9 14 14 0 00.5 2.2 5 5 0 01.2 1 1.7 1.7 0 00.3.7 2.9 2.9 0 01.5 1.2 8.5 8.5 0 00.3 1l.4 1.4a5.4 5.4 0 00.6 1.5 8.5 8.5 0 01.8 2.1l.2.5a2.1 2.1 0 01.5 1 2.1 2.1 0 00.4.8 1 1 0 01.2.5c.1.3.2.4.4.3h.1v.9l.5 1 .5 1 1.1 1.2.4.4c.3.3.7.5.9 1l.4.3a.7.7 0 01.3.5l.2.7a3.3 3.3 0 00.6.9l.4.2h.3a.2.2 0 01.1.3 2.5 2.5 0 000 .5.9.9 0 00.4.5h.2c.4-.1.8.2 1.2.7h.1c0-.1.1-.1 0-.2v-.2c0-.1.1-.2.2-.1a.7.7 0 01.3.6v.2a4.3 4.3 0 00.4 1.2c.5.3.5.3.5.1s0-.2.2-.2h.4l.2.3.8.5c.7.8 1.8.7 2.6 1.2l1.7 1.7h.2a2.9 2.9 0 001.6 1.6 1.3 1.3 0 001 .6c0 .5.6.6 1.1.7a1.2 1.2 0 00.8.4h.2a1.7 1.7 0 001.5.5l.9.8 2.4.9v.2c.5 1.1 1.7.7 2.5 1l1.1.4h.4c1.2.3 2.4.9 3.7.5a.7.7 0 000 .4c1.1.7 2.4 0 3.6.4a2.9 2.9 0 001.7.1h.1l.8.2h.3l.9.2h.3a.5.5 0 01.5 0 7.9 7.9 0 001.5.4h.6a.7.7 0 01.7 0h3.9a5 5 0 001.6-.1h1l.5-.2H60l.6-.2.5-.3h2.2v.6H62l-1.2.2c-.4.1-.7 0-1 .1a2.4 2.4 0 01-1 .2l-1.3.3h-.4a3.1 3.1 0 00-1.5.1h-1.8a1.1 1.1 0 01-.9 0h-4.5a1.3 1.3 0 00-1.1.3H47l-.3-.2v-.3h-1.2a4.1 4.1 0 00-1.3-.3h-2.5l-.7-.2-.5-.2-2.1-.4h-.5l-.5-.2-2.1-.7-1.4-.4h-2.2c-.1 0-.1.1-.1.2h.2c1.3.5 2.6.9 3.9 1.5h.3l.9.2 1.4.4h1.3l.6.2.7.3 1.7.3 1.1.2 1.1.2h.8l.8.2h3.1l1 .2h2.3l1-.2H56c.4 0 .6-.1.7-.3h1a1 1 0 00.8-.3c-.1.1 0 .1.1.2h.4v-.2c0-.1 0-.1.2-.2s.6-.1.7.1h.4l.3-.2c.2 0 .2 0 .2.1h.7l.5-.2.8-.4c.1.3.4.4 1.3.2l1.3-.4h1.2c.9-.1 2 0 2.7-.7h.2l.4-.3 1.1-.3a6.1 6.1 0 002-.8l.4-.2h.1l.9-.6.4-.2.5-.2h.4c.4-.1.4-.1.5-.4s0-.1-.2-.1h-.1l.4-.5h.2c.3-.1.5-.2.7-.1h.2a1.3 1.3 0 00.9-.9c.3-.4 1.1-.2 1.3-.8l4.3-3.1c1.1-.1 1.4-1.1 2.2-1.7s2.3-1.1 3-2.2l.9-.4h.1a1 1 0 001.2-.7v.4c.8-.4 1.8.3 2.6-.5s0-2.7 1-3.8l.7-.5a12.1 12.1 0 001.5-4.2l.2-.2c0-.3 0-.7.4-.9a.9.9 0 00.2-1.2h-.2a.3.3 0 000-.3c.7 0 .8-.7 1.2-1V77a.5.5 0 010-.2 3.8 3.8 0 00.1-.7zM5.9 32.2z"/><path d="M26.4 9.3l-.3.2-.4.3.5-.2zm6.1-2h.1l.3-.2h-.4zm-2.6 1l-.1.1h.1v-.1zm-1.5 1.4zm1.3-.2zm-6.3 3.1zM9.2 26.2l-.4.4H9a.4.4 0 00.2-.4zm3-3.5a2.1 2.1 0 00.3-.6 1.5 1.5 0 00-.5.5c-.1.1-.1.2 0 .2zM11 24.2V24c-.2 0-.5.3-.8.3v.2c.3.3.4.2.8-.3zm3 66.2zM73.9 9.2h.1l-.5-.3zm-2.5-1.4c.5-.1.8.4 1.2.5h.1l-.3-.2-1-.5-1.1-.5.3.2zM52.8 3.1zm11.7 2h-.1l-1.2-.2h.5zm2 .7l1.3.4a3.3 3.3 0 00-1.3-.4zm-9 0a1 1 0 00.2-.5h-.5l-.3.3.4.3zm9 1.6zM49.9 4.2zm2.9.7zM48.5 4zm13.8 2.1a.5.5 0 000 .1zm44.8 52.3h-.3V58h.3c.1 0 .2-.3.1-.4s-.1-.7-.3-.8a.3.3 0 01-.2-.3l.2-.4a.4.4 0 000-.2h-.2l-.2-.3c-.1.3-.2.6-.4.7a.5.5 0 000 .2c0 .1 0 .2-.1.2h-.1a1.1 1.1 0 01-.1.3 2.3 2.3 0 00-.4.9.4.4 0 00.1.4h.1a1.7 1.7 0 00-.1.8v.4a1.8 1.8 0 01-.1.5h-.1l-.4.7v.6a1.5 1.5 0 01-.3 1.1h-.2l-.2-.2a.9.9 0 01-.1-.8 6.5 6.5 0 00.1-1.7c0-.1-.1-.2-.1-.2a.5.5 0 00-.1.3v.6c0 .2-.1.6-.3.7s-.1.2-.1.3l-.2.6.3.5c-.2.2-.4.1-.5-.1v1h.3v.4a4.2 4.2 0 00-.3 1.4 3.3 3.3 0 000 .4 4 4 0 01-.2 1.3 2 2 0 000 .6l-.3.7a3.2 3.2 0 01-.3.7l-.3.6-.9 2.7c.3.9-.4 1.5-.8 2.1a2.7 2.7 0 01-.8 2.3v.4c0 .1.1.2.3.1l.4-.3.2-.4h.2c.1.1.2.1.4-.1h.2a.5.5 0 01.1.6 2.9 2.9 0 00-.1.8c0 .1 0 .2.1.2h.2c.1.1.2 0 .3-.3l.2-.5h.3c.4-.1.4-.1.6-.6l.5-.9.3-.6.4-1a1.6 1.6 0 01.3-1 .6.6 0 00.1-.6c0-.2 0-.3.2-.6l.3-.4.5-1a4.7 4.7 0 01.2-.9 3 3 0 00.3-1.3 3.8 3.8 0 01.3-.9v-.5c-.1-.2-.1-.2 0-.6s.1-.2.2-.2a.4.4 0 01.1.3l.2-.5a2.3 2.3 0 00.2-.9v-.3c0-.1 0-.3-.1-.3v.4c-.2 0-.3.2-.5.3a6.4 6.4 0 00.1-.8l.4-.2a.7.7 0 00.2-.6 1.4 1.4 0 010-.3 4.8 4.8 0 00.2-1.4v-.2l.3-1h.1a.3.3 0 00.1-.3h-.1a.9.9 0 01.2-.8 1.5 1.5 0 00-.9-1zm-1.2 7.8zm-.2-9.9zm0 0zM9.1 30.8a.3.3 0 000-.2l-.2-.2-.2.2-.3.6c0 .3-.3.6-.3.9v.2h.1zm96.3 24.8h.1a1.7 1.7 0 00.2-1.2.5.5 0 01.2-.5h.1v-.2l-.2-.2h-.1c-.1.1-.2.3-.3.3s-.1.1-.1.3v.3a2.2 2.2 0 00.1 1.2zM13.2 90.1c-.1 0 0 .2 0 .3l.8.8h.1c-.2-.3-.3-.6-.2-.7a.9.9 0 01-.5-.2zm.8.3zm92.3-35.7h.1a2 2 0 000-.6c-.3.1-.3.1-.3.6s.1.1.2 0z"/><path d="M106.7 62a.6.6 0 00.1-.5c0-.1-.1-.2-.1-.1h-.2v.2c0 .4.1.5.2.4zm.1-8.2h-.1v.6a1 1 0 00.1-.6zM17.1 92.6h-.2v.2l.2.2h.2v-.2zm86.6-33.3c0-.1 0-.1-.1-.1zM9.9 86.5l.5.5-.4-.6z"/><circle cx="10.5" cy="87.1" transform="rotate(-24.8 10.4 87.159)"/><path d="M9.7 30.1h-.1v.2-.2h.1zm83.2-6.6l-.2-.3h-.1zm-14.7 77.1zM5.9 32.2zm-.1.2a.3.3 0 00.1-.2v.2zm1.9-4.9zM61.5 2.4zm42.8 58.2v.1-.1zM16.4 92.5h-.1c.1.1.2 0 .1-.1zm.2.7h.1l-.1-.1v.1zm73.9-71.3zm15.2 34.4zM14.6 91.7zm92.1-37zm-.8 11.4zM34.6 0z"/></g><path xmlns="http://www.w3.org/2000/svg" d="M101.793 115.979c0-12.568-12.91-41.2-18.881-53.773V51.29c.735-.166 1.47-.367 2.201-.601 11.938-3.846 18.285-15.643 15.883-21.902-.659-1.717-2.014-3.106-3.875-4.145a35.485 35.485 0 002.205-9.001c.613-5.762-7.39-5.64-7.39-5.64s3 .456 2.805 3.625c-.156 2.519-6.397 7.079-8.949 8.844-3.378.121-7.053.755-10.759 1.948-3.706 1.194-7.005 2.807-9.722 4.652-3.196.088-11.178.11-13.018-1.765-2.318-2.358-.29-4.435-.29-4.435s-6.325 4.495-1.91 8.637a41.316 41.316 0 007.867 5.754c-.743 1.877-.85 3.74-.192 5.456 1.858 4.842 10.067 9.263 19.214 9.236v10.254c-5.97 12.572-18.88 41.207-18.88 53.775 0 4.015.592 7.273 1.661 9.909-4.793 4.083-13.995 10.379-21.748 6.41-6.383-3.269-7.737-8.815-6.295-12.584.774-2.023 2.654-4.023 5.607-3.572 2.163.33 3.713 1.111 4.607 2.32 1.409 1.9.849 4.358.843 4.382l.003-.008s-.242 1.388 1.082 1.608c1.81.297 2.036-.958 2.036-.958.037-.149.878-3.673-1.294-6.638-1.403-1.916-3.673-3.124-6.751-3.595-4.045-.618-7.636 1.538-9.15 5.491-1.872 4.89-.244 12.017 7.751 16.111 9.423 4.825 20.843-.51 26.576-3.932 1.892 1.9 4.251 3.175 6.93 3.994-.753.49-1.204 1.094-1.204 1.75 0 1.619 2.704 2.93 6.038 2.93 2.184 0 4.09-.564 5.152-1.406 1.06.842 2.967 1.406 5.15 1.406 3.335 0 6.038-1.311 6.038-2.93 0-.656-.451-1.26-1.204-1.75 7.045-2.155 11.863-7.47 11.863-18.941z" fill="#c18ffe"/><path d="M69.38 151.323c.014.01.01.025-.008.043a.779.779 0 01-.568.234.797.797 0 01-.804-.798c0-.446.362-.802.804-.802a.8.8 0 01.572.234c.018.018.02.031.008.041l-.083.069c-.014.012-.025.012-.04-.002a.64.64 0 00-.445-.193.652.652 0 100 1.302c.2 0 .354-.103.44-.19.016-.015.028-.019.041-.007z" fill="#121212"/><path d="M83.38 151.291c.02.016.02.036.002.053a.786.786 0 01-.588.256.794.794 0 01-.794-.796c0-.446.362-.804.794-.804.238 0 .446.098.594.26.017.017.015.037-.002.053l-.163.131c-.02.016-.038.014-.053-.004a.526.526 0 00-.374-.169.528.528 0 00-.515.533c0 .287.226.525.515.525a.515.515 0 00.368-.163c.017-.018.035-.02.055-.006z" fill="#0f0f0f"/></svg>
